<?xml version="1.0" encoding="utf-8" standalone="no"?>
<!DOCTYPE svg PUBLIC "-//W3C//DTD SVG 1.1//EN"
  "http://www.w3.org/Graphics/SVG/1.1/DTD/svg11.dtd">
<svg xmlns:xlink="http://www.w3.org/1999/xlink" width="280.54pt" height="208.478437pt" viewBox="0 0 280.54 208.478437" xmlns="http://www.w3.org/2000/svg" version="1.1">
 <metadata>
  <rdf:RDF xmlns:dc="http://purl.org/dc/elements/1.1/" xmlns:cc="http://creativecommons.org/ns#" xmlns:rdf="http://www.w3.org/1999/02/22-rdf-syntax-ns#">
   <cc:Work>
    <dc:type rdf:resource="http://purl.org/dc/dcmitype/StillImage"/>
    <dc:date>2026-07-18T01:55:20.280259</dc:date>
    <dc:format>image/svg+xml</dc:format>
    <dc:creator>
     <cc:Agent>
      <dc:title>Matplotlib v3.11.0, https://matplotlib.org/</dc:title>
     </cc:Agent>
    </dc:creator>
   </cc:Work>
  </rdf:RDF>
 </metadata>
 <defs>
  <style type="text/css">*{stroke-linejoin: round; stroke-linecap: butt}</style>
 </defs>
 <g id="figure_1">
  <g id="patch_1">
   <path d="M 0 208.478437 
L 280.54 208.478437 
L 280.54 0 
L 0 0 
z
" style="fill: #ffffff"/>
  </g>
  <g id="axes_1">
   <g id="patch_2">
    <path d="M 51.7 170.277656 
L 273.34 170.277656 
L 273.34 7.2 
L 51.7 7.2 
z
" style="fill: #ffffff"/>
   </g>
   <g id="matplotlib.axis_1">
    <g id="xtick_1">
     <g id="line2d_1">
      <defs>
       <path id="m537a40f6e6" d="M 0 0 
L 0 3.5 
" style="stroke: #000000; stroke-width: 0.8"/>
      </defs>
      <g>
       <use xlink:href="#m537a40f6e6" x="61.774545" y="170.277656" style="stroke: #000000; stroke-width: 0.8"/>
      </g>
     </g>
     <g id="text_1">
      <!-- 0 -->
      <g transform="translate(58.593295 184.875312) scale(0.1 -0.1)">
       <defs>
        <path id="DejaVuSans-13" d="M 2034 4250 
Q 1547 4250 1301 3770 
Q 1056 3291 1056 2328 
Q 1056 1369 1301 889 
Q 1547 409 2034 409 
Q 2525 409 2770 889 
Q 3016 1369 3016 2328 
Q 3016 3291 2770 3770 
Q 2525 4250 2034 4250 
z
M 2034 4750 
Q 2819 4750 3233 4129 
Q 3647 3509 3647 2328 
Q 3647 1150 3233 529 
Q 2819 -91 2034 -91 
Q 1250 -91 836 529 
Q 422 1150 422 2328 
Q 422 3509 836 4129 
Q 1250 4750 2034 4750 
z
" transform="scale(0.015625)"/>
       </defs>
       <use xlink:href="#DejaVuSans-13"/>
      </g>
     </g>
    </g>
    <g id="xtick_2">
     <g id="line2d_2">
      <g>
       <use xlink:href="#m537a40f6e6" x="97.62702" y="170.277656" style="stroke: #000000; stroke-width: 0.8"/>
      </g>
     </g>
     <g id="text_2">
      <!-- 100 -->
      <g transform="translate(88.08327 184.875312) scale(0.1 -0.1)">
       <defs>
        <path id="DejaVuSans-14" d="M 794 531 
L 1825 531 
L 1825 4091 
L 703 3866 
L 703 4441 
L 1819 4666 
L 2450 4666 
L 2450 531 
L 3481 531 
L 3481 0 
L 794 0 
L 794 531 
z
" transform="scale(0.015625)"/>
       </defs>
       <use xlink:href="#DejaVuSans-14"/>
       <use xlink:href="#DejaVuSans-13" transform="translate(63.625 0)"/>
       <use xlink:href="#DejaVuSans-13" transform="translate(127.25 0)"/>
      </g>
     </g>
    </g>
    <g id="xtick_3">
     <g id="line2d_3">
      <g>
       <use xlink:href="#m537a40f6e6" x="133.479495" y="170.277656" style="stroke: #000000; stroke-width: 0.8"/>
      </g>
     </g>
     <g id="text_3">
      <!-- 200 -->
      <g transform="translate(123.935745 184.875312) scale(0.1 -0.1)">
       <defs>
        <path id="DejaVuSans-15" d="M 1228 531 
L 3431 531 
L 3431 0 
L 469 0 
L 469 531 
Q 828 903 1448 1529 
Q 2069 2156 2228 2338 
Q 2531 2678 2651 2914 
Q 2772 3150 2772 3378 
Q 2772 3750 2511 3984 
Q 2250 4219 1831 4219 
Q 1534 4219 1204 4116 
Q 875 4013 500 3803 
L 500 4441 
Q 881 4594 1212 4672 
Q 1544 4750 1819 4750 
Q 2544 4750 2975 4387 
Q 3406 4025 3406 3419 
Q 3406 3131 3298 2873 
Q 3191 2616 2906 2266 
Q 2828 2175 2409 1742 
Q 1991 1309 1228 531 
z
" transform="scale(0.015625)"/>
       </defs>
       <use xlink:href="#DejaVuSans-15"/>
       <use xlink:href="#DejaVuSans-13" transform="translate(63.625 0)"/>
       <use xlink:href="#DejaVuSans-13" transform="translate(127.25 0)"/>
      </g>
     </g>
    </g>
    <g id="xtick_4">
     <g id="line2d_4">
      <g>
       <use xlink:href="#m537a40f6e6" x="169.33197" y="170.277656" style="stroke: #000000; stroke-width: 0.8"/>
      </g>
     </g>
     <g id="text_4">
      <!-- 300 -->
      <g transform="translate(159.78822 184.875312) scale(0.1 -0.1)">
       <defs>
        <path id="DejaVuSans-16" d="M 2597 2516 
Q 3050 2419 3304 2112 
Q 3559 1806 3559 1356 
Q 3559 666 3084 287 
Q 2609 -91 1734 -91 
Q 1441 -91 1130 -33 
Q 819 25 488 141 
L 488 750 
Q 750 597 1062 519 
Q 1375 441 1716 441 
Q 2309 441 2620 675 
Q 2931 909 2931 1356 
Q 2931 1769 2642 2001 
Q 2353 2234 1838 2234 
L 1294 2234 
L 1294 2753 
L 1863 2753 
Q 2328 2753 2575 2939 
Q 2822 3125 2822 3475 
Q 2822 3834 2567 4026 
Q 2313 4219 1838 4219 
Q 1578 4219 1281 4162 
Q 984 4106 628 3988 
L 628 4550 
Q 988 4650 1302 4700 
Q 1616 4750 1894 4750 
Q 2613 4750 3031 4423 
Q 3450 4097 3450 3541 
Q 3450 3153 3228 2886 
Q 3006 2619 2597 2516 
z
" transform="scale(0.015625)"/>
       </defs>
       <use xlink:href="#DejaVuSans-16"/>
       <use xlink:href="#DejaVuSans-13" transform="translate(63.625 0)"/>
       <use xlink:href="#DejaVuSans-13" transform="translate(127.25 0)"/>
      </g>
     </g>
    </g>
    <g id="xtick_5">
     <g id="line2d_5">
      <g>
       <use xlink:href="#m537a40f6e6" x="205.184445" y="170.277656" style="stroke: #000000; stroke-width: 0.8"/>
      </g>
     </g>
     <g id="text_5">
      <!-- 400 -->
      <g transform="translate(195.640695 184.875312) scale(0.1 -0.1)">
       <defs>
        <path id="DejaVuSans-17" d="M 2419 4116 
L 825 1625 
L 2419 1625 
L 2419 4116 
z
M 2253 4666 
L 3047 4666 
L 3047 1625 
L 3713 1625 
L 3713 1100 
L 3047 1100 
L 3047 0 
L 2419 0 
L 2419 1100 
L 313 1100 
L 313 1709 
L 2253 4666 
z
" transform="scale(0.015625)"/>
       </defs>
       <use xlink:href="#DejaVuSans-17"/>
       <use xlink:href="#DejaVuSans-13" transform="translate(63.625 0)"/>
       <use xlink:href="#DejaVuSans-13" transform="translate(127.25 0)"/>
      </g>
     </g>
    </g>
    <g id="xtick_6">
     <g id="line2d_6">
      <g>
       <use xlink:href="#m537a40f6e6" x="241.03692" y="170.277656" style="stroke: #000000; stroke-width: 0.8"/>
      </g>
     </g>
     <g id="text_6">
      <!-- 500 -->
      <g transform="translate(231.49317 184.875312) scale(0.1 -0.1)">
       <defs>
        <path id="DejaVuSans-18" d="M 691 4666 
L 3169 4666 
L 3169 4134 
L 1269 4134 
L 1269 2991 
Q 1406 3038 1543 3061 
Q 1681 3084 1819 3084 
Q 2600 3084 3056 2656 
Q 3513 2228 3513 1497 
Q 3513 744 3044 326 
Q 2575 -91 1722 -91 
Q 1428 -91 1123 -41 
Q 819 9 494 109 
L 494 744 
Q 775 591 1075 516 
Q 1375 441 1709 441 
Q 2250 441 2565 725 
Q 2881 1009 2881 1497 
Q 2881 1984 2565 2268 
Q 2250 2553 1709 2553 
Q 1456 2553 1204 2497 
Q 953 2441 691 2322 
L 691 4666 
z
" transform="scale(0.015625)"/>
       </defs>
       <use xlink:href="#DejaVuSans-18"/>
       <use xlink:href="#DejaVuSans-13" transform="translate(63.625 0)"/>
       <use xlink:href="#DejaVuSans-13" transform="translate(127.25 0)"/>
      </g>
     </g>
    </g>
    <g id="text_7">
     <!-- Epoch -->
     <g transform="translate(147.209062 198.876094) scale(0.1 -0.1)">
      <defs>
       <path id="DejaVuSans-28" d="M 628 4666 
L 3578 4666 
L 3578 4134 
L 1259 4134 
L 1259 2753 
L 3481 2753 
L 3481 2222 
L 1259 2222 
L 1259 531 
L 3634 531 
L 3634 0 
L 628 0 
L 628 4666 
z
" transform="scale(0.015625)"/>
       <path id="DejaVuSans-53" d="M 1159 525 
L 1159 -1331 
L 581 -1331 
L 581 3500 
L 1159 3500 
L 1159 2969 
Q 1341 3281 1617 3432 
Q 1894 3584 2278 3584 
Q 2916 3584 3314 3078 
Q 3713 2572 3713 1747 
Q 3713 922 3314 415 
Q 2916 -91 2278 -91 
Q 1894 -91 1617 61 
Q 1341 213 1159 525 
z
M 3116 1747 
Q 3116 2381 2855 2742 
Q 2594 3103 2138 3103 
Q 1681 3103 1420 2742 
Q 1159 2381 1159 1747 
Q 1159 1113 1420 752 
Q 1681 391 2138 391 
Q 2594 391 2855 752 
Q 3116 1113 3116 1747 
z
" transform="scale(0.015625)"/>
       <path id="DejaVuSans-52" d="M 1959 3097 
Q 1497 3097 1228 2736 
Q 959 2375 959 1747 
Q 959 1119 1226 758 
Q 1494 397 1959 397 
Q 2419 397 2687 759 
Q 2956 1122 2956 1747 
Q 2956 2369 2687 2733 
Q 2419 3097 1959 3097 
z
M 1959 3584 
Q 2709 3584 3137 3096 
Q 3566 2609 3566 1747 
Q 3566 888 3137 398 
Q 2709 -91 1959 -91 
Q 1206 -91 779 398 
Q 353 888 353 1747 
Q 353 2609 779 3096 
Q 1206 3584 1959 3584 
z
" transform="scale(0.015625)"/>
       <path id="DejaVuSans-46" d="M 3122 3366 
L 3122 2828 
Q 2878 2963 2633 3030 
Q 2388 3097 2138 3097 
Q 1578 3097 1268 2742 
Q 959 2388 959 1747 
Q 959 1106 1268 751 
Q 1578 397 2138 397 
Q 2388 397 2633 464 
Q 2878 531 3122 666 
L 3122 134 
Q 2881 22 2623 -34 
Q 2366 -91 2075 -91 
Q 1284 -91 818 406 
Q 353 903 353 1747 
Q 353 2603 823 3093 
Q 1294 3584 2113 3584 
Q 2378 3584 2631 3529 
Q 2884 3475 3122 3366 
z
" transform="scale(0.015625)"/>
       <path id="DejaVuSans-4b" d="M 3513 2113 
L 3513 0 
L 2938 0 
L 2938 2094 
Q 2938 2591 2744 2837 
Q 2550 3084 2163 3084 
Q 1697 3084 1428 2787 
Q 1159 2491 1159 1978 
L 1159 0 
L 581 0 
L 581 4863 
L 1159 4863 
L 1159 2956 
Q 1366 3272 1645 3428 
Q 1925 3584 2291 3584 
Q 2894 3584 3203 3211 
Q 3513 2838 3513 2113 
z
" transform="scale(0.015625)"/>
      </defs>
      <use xlink:href="#DejaVuSans-28"/>
      <use xlink:href="#DejaVuSans-53" transform="translate(63.1875 0)"/>
      <use xlink:href="#DejaVuSans-52" transform="translate(126.671875 0)"/>
      <use xlink:href="#DejaVuSans-46" transform="translate(187.859375 0)"/>
      <use xlink:href="#DejaVuSans-4b" transform="translate(242.84375 0)"/>
     </g>
    </g>
   </g>
   <g id="matplotlib.axis_2">
    <g id="ytick_1">
     <g id="line2d_7">
      <defs>
       <path id="m6ae3ac935e" d="M 0 0 
L -3.5 0 
" style="stroke: #000000; stroke-width: 0.8"/>
      </defs>
      <g>
       <use xlink:href="#m6ae3ac935e" x="51.7" y="136.728974" style="stroke: #000000; stroke-width: 0.8"/>
      </g>
     </g>
     <g id="text_8">
      <!-- $\mathdefault{10^{-4}}$ -->
      <g transform="translate(21.2 141.378974) scale(0.1 -0.1)">
       <defs>
        <path id="DejaVuSans-c9c" d="M 678 2272 
L 4684 2272 
L 4684 1741 
L 678 1741 
L 678 2272 
z
" transform="scale(0.015625)"/>
       </defs>
       <use xlink:href="#DejaVuSans-14" transform="translate(0 0.665625)"/>
       <use xlink:href="#DejaVuSans-13" transform="translate(63.623047 0.665625)"/>
       <use xlink:href="#DejaVuSans-c9c" transform="translate(128.203125 41.965625) scale(0.7)"/>
       <use xlink:href="#DejaVuSans-17" transform="translate(186.855469 41.965625) scale(0.7)"/>
      </g>
     </g>
    </g>
    <g id="ytick_2">
     <g id="line2d_8">
      <g>
       <use xlink:href="#m6ae3ac935e" x="51.7" y="96.000671" style="stroke: #000000; stroke-width: 0.8"/>
      </g>
     </g>
     <g id="text_9">
      <!-- $\mathdefault{10^{-3}}$ -->
      <g transform="translate(21.2 100.700671) scale(0.1 -0.1)">
       <use xlink:href="#DejaVuSans-14" transform="translate(0 0.746875)"/>
       <use xlink:href="#DejaVuSans-13" transform="translate(63.623047 0.746875)"/>
       <use xlink:href="#DejaVuSans-c9c" transform="translate(128.203125 42.046875) scale(0.7)"/>
       <use xlink:href="#DejaVuSans-16" transform="translate(186.855469 42.046875) scale(0.7)"/>
      </g>
     </g>
    </g>
    <g id="ytick_3">
     <g id="line2d_9">
      <g>
       <use xlink:href="#m6ae3ac935e" x="51.7" y="55.272368" style="stroke: #000000; stroke-width: 0.8"/>
      </g>
     </g>
     <g id="text_10">
      <!-- $\mathdefault{10^{-2}}$ -->
      <g transform="translate(21.2 59.972368) scale(0.1 -0.1)">
       <use xlink:href="#DejaVuSans-14" transform="translate(0 0.746875)"/>
       <use xlink:href="#DejaVuSans-13" transform="translate(63.623047 0.746875)"/>
       <use xlink:href="#DejaVuSans-c9c" transform="translate(128.203125 42.046875) scale(0.7)"/>
       <use xlink:href="#DejaVuSans-15" transform="translate(186.855469 42.046875) scale(0.7)"/>
      </g>
     </g>
    </g>
    <g id="ytick_4">
     <g id="line2d_10">
      <g>
       <use xlink:href="#m6ae3ac935e" x="51.7" y="14.544065" style="stroke: #000000; stroke-width: 0.8"/>
      </g>
     </g>
     <g id="text_11">
      <!-- $\mathdefault{10^{-1}}$ -->
      <g transform="translate(21.2 19.194065) scale(0.1 -0.1)">
       <use xlink:href="#DejaVuSans-14" transform="translate(0 0.665625)"/>
       <use xlink:href="#DejaVuSans-13" transform="translate(63.623047 0.665625)"/>
       <use xlink:href="#DejaVuSans-c9c" transform="translate(128.203125 41.965625) scale(0.7)"/>
       <use xlink:href="#DejaVuSans-14" transform="translate(186.855469 41.965625) scale(0.7)"/>
      </g>
     </g>
    </g>
    <g id="ytick_5">
     <g id="line2d_11">
      <defs>
       <path id="m88694b034d" d="M 0 0 
L -2 0 
" style="stroke: #000000; stroke-width: 0.6"/>
      </defs>
      <g>
       <use xlink:href="#m88694b034d" x="51.7" y="165.196837" style="stroke: #000000; stroke-width: 0.6"/>
      </g>
     </g>
    </g>
    <g id="ytick_6">
     <g id="line2d_12">
      <g>
       <use xlink:href="#m88694b034d" x="51.7" y="158.024938" style="stroke: #000000; stroke-width: 0.6"/>
      </g>
     </g>
    </g>
    <g id="ytick_7">
     <g id="line2d_13">
      <g>
       <use xlink:href="#m88694b034d" x="51.7" y="152.936396" style="stroke: #000000; stroke-width: 0.6"/>
      </g>
     </g>
    </g>
    <g id="ytick_8">
     <g id="line2d_14">
      <g>
       <use xlink:href="#m88694b034d" x="51.7" y="148.989415" style="stroke: #000000; stroke-width: 0.6"/>
      </g>
     </g>
    </g>
    <g id="ytick_9">
     <g id="line2d_15">
      <g>
       <use xlink:href="#m88694b034d" x="51.7" y="145.764497" style="stroke: #000000; stroke-width: 0.6"/>
      </g>
     </g>
    </g>
    <g id="ytick_10">
     <g id="line2d_16">
      <g>
       <use xlink:href="#m88694b034d" x="51.7" y="143.037868" style="stroke: #000000; stroke-width: 0.6"/>
      </g>
     </g>
    </g>
    <g id="ytick_11">
     <g id="line2d_17">
      <g>
       <use xlink:href="#m88694b034d" x="51.7" y="140.675955" style="stroke: #000000; stroke-width: 0.6"/>
      </g>
     </g>
    </g>
    <g id="ytick_12">
     <g id="line2d_18">
      <g>
       <use xlink:href="#m88694b034d" x="51.7" y="138.592599" style="stroke: #000000; stroke-width: 0.6"/>
      </g>
     </g>
    </g>
    <g id="ytick_13">
     <g id="line2d_19">
      <g>
       <use xlink:href="#m88694b034d" x="51.7" y="124.468533" style="stroke: #000000; stroke-width: 0.6"/>
      </g>
     </g>
    </g>
    <g id="ytick_14">
     <g id="line2d_20">
      <g>
       <use xlink:href="#m88694b034d" x="51.7" y="117.296635" style="stroke: #000000; stroke-width: 0.6"/>
      </g>
     </g>
    </g>
    <g id="ytick_15">
     <g id="line2d_21">
      <g>
       <use xlink:href="#m88694b034d" x="51.7" y="112.208092" style="stroke: #000000; stroke-width: 0.6"/>
      </g>
     </g>
    </g>
    <g id="ytick_16">
     <g id="line2d_22">
      <g>
       <use xlink:href="#m88694b034d" x="51.7" y="108.261112" style="stroke: #000000; stroke-width: 0.6"/>
      </g>
     </g>
    </g>
    <g id="ytick_17">
     <g id="line2d_23">
      <g>
       <use xlink:href="#m88694b034d" x="51.7" y="105.036194" style="stroke: #000000; stroke-width: 0.6"/>
      </g>
     </g>
    </g>
    <g id="ytick_18">
     <g id="line2d_24">
      <g>
       <use xlink:href="#m88694b034d" x="51.7" y="102.309565" style="stroke: #000000; stroke-width: 0.6"/>
      </g>
     </g>
    </g>
    <g id="ytick_19">
     <g id="line2d_25">
      <g>
       <use xlink:href="#m88694b034d" x="51.7" y="99.947652" style="stroke: #000000; stroke-width: 0.6"/>
      </g>
     </g>
    </g>
    <g id="ytick_20">
     <g id="line2d_26">
      <g>
       <use xlink:href="#m88694b034d" x="51.7" y="97.864296" style="stroke: #000000; stroke-width: 0.6"/>
      </g>
     </g>
    </g>
    <g id="ytick_21">
     <g id="line2d_27">
      <g>
       <use xlink:href="#m88694b034d" x="51.7" y="83.74023" style="stroke: #000000; stroke-width: 0.6"/>
      </g>
     </g>
    </g>
    <g id="ytick_22">
     <g id="line2d_28">
      <g>
       <use xlink:href="#m88694b034d" x="51.7" y="76.568332" style="stroke: #000000; stroke-width: 0.6"/>
      </g>
     </g>
    </g>
    <g id="ytick_23">
     <g id="line2d_29">
      <g>
       <use xlink:href="#m88694b034d" x="51.7" y="71.479789" style="stroke: #000000; stroke-width: 0.6"/>
      </g>
     </g>
    </g>
    <g id="ytick_24">
     <g id="line2d_30">
      <g>
       <use xlink:href="#m88694b034d" x="51.7" y="67.532809" style="stroke: #000000; stroke-width: 0.6"/>
      </g>
     </g>
    </g>
    <g id="ytick_25">
     <g id="line2d_31">
      <g>
       <use xlink:href="#m88694b034d" x="51.7" y="64.307891" style="stroke: #000000; stroke-width: 0.6"/>
      </g>
     </g>
    </g>
    <g id="ytick_26">
     <g id="line2d_32">
      <g>
       <use xlink:href="#m88694b034d" x="51.7" y="61.581262" style="stroke: #000000; stroke-width: 0.6"/>
      </g>
     </g>
    </g>
    <g id="ytick_27">
     <g id="line2d_33">
      <g>
       <use xlink:href="#m88694b034d" x="51.7" y="59.219348" style="stroke: #000000; stroke-width: 0.6"/>
      </g>
     </g>
    </g>
    <g id="ytick_28">
     <g id="line2d_34">
      <g>
       <use xlink:href="#m88694b034d" x="51.7" y="57.135993" style="stroke: #000000; stroke-width: 0.6"/>
      </g>
     </g>
    </g>
    <g id="ytick_29">
     <g id="line2d_35">
      <g>
       <use xlink:href="#m88694b034d" x="51.7" y="43.011927" style="stroke: #000000; stroke-width: 0.6"/>
      </g>
     </g>
    </g>
    <g id="ytick_30">
     <g id="line2d_36">
      <g>
       <use xlink:href="#m88694b034d" x="51.7" y="35.840029" style="stroke: #000000; stroke-width: 0.6"/>
      </g>
     </g>
    </g>
    <g id="ytick_31">
     <g id="line2d_37">
      <g>
       <use xlink:href="#m88694b034d" x="51.7" y="30.751486" style="stroke: #000000; stroke-width: 0.6"/>
      </g>
     </g>
    </g>
    <g id="ytick_32">
     <g id="line2d_38">
      <g>
       <use xlink:href="#m88694b034d" x="51.7" y="26.804506" style="stroke: #000000; stroke-width: 0.6"/>
      </g>
     </g>
    </g>
    <g id="ytick_33">
     <g id="line2d_39">
      <g>
       <use xlink:href="#m88694b034d" x="51.7" y="23.579588" style="stroke: #000000; stroke-width: 0.6"/>
      </g>
     </g>
    </g>
    <g id="ytick_34">
     <g id="line2d_40">
      <g>
       <use xlink:href="#m88694b034d" x="51.7" y="20.852959" style="stroke: #000000; stroke-width: 0.6"/>
      </g>
     </g>
    </g>
    <g id="ytick_35">
     <g id="line2d_41">
      <g>
       <use xlink:href="#m88694b034d" x="51.7" y="18.491045" style="stroke: #000000; stroke-width: 0.6"/>
      </g>
     </g>
    </g>
    <g id="ytick_36">
     <g id="line2d_42">
      <g>
       <use xlink:href="#m88694b034d" x="51.7" y="16.40769" style="stroke: #000000; stroke-width: 0.6"/>
      </g>
     </g>
    </g>
    <g id="text_12">
     <!-- Loss -->
     <g transform="translate(14.797656 99.706016) rotate(-90) scale(0.1 -0.1)">
      <defs>
       <path id="DejaVuSans-2f" d="M 628 4666 
L 1259 4666 
L 1259 531 
L 3531 531 
L 3531 0 
L 628 0 
L 628 4666 
z
" transform="scale(0.015625)"/>
       <path id="DejaVuSans-56" d="M 2834 3397 
L 2834 2853 
Q 2591 2978 2328 3040 
Q 2066 3103 1784 3103 
Q 1356 3103 1142 2972 
Q 928 2841 928 2578 
Q 928 2378 1081 2264 
Q 1234 2150 1697 2047 
L 1894 2003 
Q 2506 1872 2764 1633 
Q 3022 1394 3022 966 
Q 3022 478 2636 193 
Q 2250 -91 1575 -91 
Q 1294 -91 989 -36 
Q 684 19 347 128 
L 347 722 
Q 666 556 975 473 
Q 1284 391 1588 391 
Q 1994 391 2212 530 
Q 2431 669 2431 922 
Q 2431 1156 2273 1281 
Q 2116 1406 1581 1522 
L 1381 1569 
Q 847 1681 609 1914 
Q 372 2147 372 2553 
Q 372 3047 722 3315 
Q 1072 3584 1716 3584 
Q 2034 3584 2315 3537 
Q 2597 3491 2834 3397 
z
" transform="scale(0.015625)"/>
      </defs>
      <use xlink:href="#DejaVuSans-2f"/>
      <use xlink:href="#DejaVuSans-52" transform="translate(53.96875 0)"/>
      <use xlink:href="#DejaVuSans-56" transform="translate(115.15625 0)"/>
      <use xlink:href="#DejaVuSans-56" transform="translate(167.25 0)"/>
     </g>
    </g>
   </g>
   <g id="line2d_43">
    <path d="M 61.774545 14.612621 
L 62.13307 60.683551 
L 62.491595 66.953326 
L 62.85012 70.149562 
L 63.208644 69.466545 
L 63.567169 75.640946 
L 63.925694 76.272465 
L 64.284219 80.747507 
L 64.642743 79.207155 
L 65.001268 84.796678 
L 65.359793 85.047302 
L 65.718318 86.171342 
L 66.076842 86.433255 
L 66.435367 86.903277 
L 66.793892 90.648109 
L 67.510941 86.314869 
L 67.869466 93.994328 
L 68.227991 85.567799 
L 68.586516 85.708943 
L 68.94504 85.049599 
L 69.303565 90.949274 
L 70.020615 97.515793 
L 70.379139 97.854175 
L 70.737664 92.848296 
L 71.096189 93.305489 
L 71.454714 86.55346 
L 71.813238 91.486805 
L 72.171763 94.345901 
L 72.530288 89.459633 
L 72.888813 92.127669 
L 73.247337 82.654451 
L 73.605862 97.69891 
L 73.964387 101.081728 
L 74.322912 96.657638 
L 74.681436 97.216613 
L 75.398486 97.690119 
L 75.757011 87.9382 
L 76.47406 100.659774 
L 76.832585 101.197518 
L 77.19111 98.737346 
L 77.549634 102.65087 
L 77.908159 93.416359 
L 78.266684 102.846415 
L 78.625209 103.073063 
L 78.983733 96.612936 
L 79.342258 95.602037 
L 79.700783 106.274528 
L 80.417832 93.487371 
L 80.776357 90.74181 
L 81.134882 96.174884 
L 81.851931 96.629851 
L 82.210456 104.774952 
L 82.568981 107.643635 
L 82.927506 127.574609 
L 83.28603 133.689929 
L 84.00308 130.44879 
L 84.361605 129.520246 
L 86.154228 120.270222 
L 86.512753 121.411191 
L 86.871278 119.472545 
L 87.229803 116.819048 
L 87.588327 119.546767 
L 87.946852 114.592411 
L 88.305377 120.867691 
L 89.022426 114.585921 
L 89.739476 122.934405 
L 90.098001 123.073743 
L 90.456525 116.140409 
L 90.81505 120.646099 
L 91.173575 138.940414 
L 91.5321 141.218214 
L 92.249149 140.095529 
L 92.607674 139.024236 
L 92.966199 137.434526 
L 93.324723 134.582172 
L 93.683248 137.29305 
L 94.041773 133.847937 
L 94.400298 136.267984 
L 94.758822 132.162083 
L 95.117347 134.369393 
L 95.475872 135.108437 
L 95.834397 133.359476 
L 96.192921 135.17431 
L 96.551446 135.402181 
L 96.909971 135.005656 
L 97.268496 135.344615 
L 97.62702 136.215726 
L 98.34407 134.308056 
L 98.702595 132.872786 
L 99.061119 133.612236 
L 99.419644 133.137607 
L 99.778169 136.380607 
L 100.136694 146.018575 
L 100.495218 147.719021 
L 100.853743 147.068914 
L 101.212268 145.809948 
L 101.570793 146.998102 
L 101.929317 146.722538 
L 102.287842 145.8204 
L 102.646367 145.633399 
L 103.004892 144.576761 
L 103.363416 144.028001 
L 103.721941 146.01561 
L 104.080466 145.67502 
L 104.438991 144.89477 
L 104.797515 144.59504 
L 105.15604 145.091308 
L 105.514565 144.551892 
L 105.87309 145.810413 
L 106.231614 145.104352 
L 106.590139 145.231615 
L 106.948664 143.846917 
L 107.665713 146.397383 
L 108.024238 151.123181 
L 108.382763 151.662186 
L 108.741288 151.396248 
L 109.099812 151.43741 
L 109.458337 151.122714 
L 109.816862 151.045959 
L 110.533911 151.329667 
L 110.892436 151.651467 
L 111.250961 150.767933 
L 111.609486 151.515624 
L 111.96801 151.189653 
L 112.326535 151.435672 
L 113.043585 150.633963 
L 113.402109 151.018497 
L 113.760634 151.063394 
L 114.119159 151.586337 
L 114.477684 151.226727 
L 114.836208 151.080252 
L 115.194733 150.750309 
L 115.911783 151.730512 
L 116.270307 151.787674 
L 116.628832 151.404068 
L 116.987357 150.79249 
L 117.345882 151.848924 
L 117.704406 152.271124 
L 118.062931 151.366502 
L 118.779981 151.196056 
L 119.138505 152.162221 
L 119.49703 151.263261 
L 119.855555 152.181057 
L 120.21408 150.968323 
L 120.572604 152.237534 
L 120.931129 152.507187 
L 121.289654 152.515312 
L 121.648179 151.304641 
L 122.006703 151.825246 
L 122.365228 151.940872 
L 122.723753 151.471324 
L 123.082278 152.521632 
L 123.440802 152.551336 
L 123.799327 152.283883 
L 124.157852 151.452004 
L 124.516377 152.555804 
L 124.874901 152.48883 
L 125.233426 152.794561 
L 125.591951 152.21103 
L 125.950476 152.271829 
L 126.309 152.168918 
L 126.667525 152.932629 
L 127.384575 151.982761 
L 127.743099 152.450975 
L 128.101624 152.517017 
L 128.460149 153.025263 
L 128.818674 152.366025 
L 129.535723 153.177341 
L 129.894248 152.185425 
L 130.252773 152.678022 
L 130.611297 152.68767 
L 130.969822 153.468859 
L 131.328347 152.341385 
L 131.686872 152.524841 
L 132.045396 151.905238 
L 133.83802 153.433618 
L 134.196545 152.816701 
L 134.55507 153.121582 
L 134.913594 153.679902 
L 135.272119 152.874461 
L 135.630644 153.122637 
L 135.989169 152.860967 
L 136.347693 153.152245 
L 136.706218 153.600144 
L 137.781792 153.028731 
L 138.140317 152.232509 
L 138.857367 153.917181 
L 139.215891 152.906327 
L 139.932941 153.667418 
L 141.008515 153.237656 
L 141.36704 153.457551 
L 141.725565 153.131397 
L 142.084089 154.214928 
L 142.442614 153.885739 
L 142.801139 154.123756 
L 143.159664 153.831569 
L 143.518188 153.150506 
L 143.876713 154.083871 
L 144.235238 153.820184 
L 144.593763 154.008032 
L 144.952287 153.387436 
L 145.310812 153.890535 
L 145.669337 153.466508 
L 146.027862 154.516425 
L 146.744911 153.6586 
L 147.103436 153.937297 
L 147.461961 154.04939 
L 147.820485 153.579265 
L 148.17901 154.180037 
L 148.537535 157.679484 
L 148.89606 157.55523 
L 149.254584 157.687671 
L 149.613109 157.610717 
L 149.971634 157.783393 
L 150.688683 157.411924 
L 151.405733 157.724875 
L 151.764258 157.552679 
L 152.122782 157.706185 
L 152.481307 157.526047 
L 152.839832 157.932554 
L 153.556881 156.845836 
L 153.915406 157.530675 
L 154.273931 157.910831 
L 154.632456 157.486574 
L 154.99098 157.692267 
L 155.349505 157.572838 
L 155.70803 157.22581 
L 156.066555 157.500599 
L 156.783604 157.458555 
L 157.500654 157.86894 
L 157.859178 157.643444 
L 158.217703 157.935556 
L 158.576228 157.897751 
L 158.934753 157.474725 
L 159.293277 157.974108 
L 159.651802 157.224328 
L 160.010327 157.704295 
L 160.368852 157.467482 
L 160.727376 158.02417 
L 161.802951 157.483395 
L 162.161475 157.839758 
L 162.52 157.709332 
L 162.878525 158.069434 
L 163.237049 157.943753 
L 163.595574 157.423895 
L 163.954099 157.806255 
L 164.671148 157.939294 
L 165.029673 158.033094 
L 165.388198 157.719913 
L 165.746723 158.009704 
L 166.105247 158.151433 
L 166.463772 157.540786 
L 166.822297 158.357229 
L 167.180822 158.331173 
L 167.539346 158.004554 
L 168.256396 158.210655 
L 168.614921 157.792453 
L 168.973445 158.35131 
L 169.33197 158.351489 
L 169.690495 157.850907 
L 170.04902 158.344482 
L 170.407544 158.020601 
L 170.766069 158.328028 
L 171.124594 158.101043 
L 171.483119 158.338283 
L 171.841643 160.10058 
L 172.200168 160.274422 
L 172.558693 160.312598 
L 172.917218 160.02976 
L 173.992792 160.028398 
L 174.351317 160.306443 
L 175.068366 159.987282 
L 175.785416 160.236897 
L 176.86099 159.935192 
L 177.578039 160.217012 
L 177.936564 160.147196 
L 178.295089 159.953885 
L 178.653614 160.043338 
L 179.012138 160.34994 
L 179.729188 160.298084 
L 180.087713 160.167137 
L 180.446237 160.256989 
L 180.804762 160.025748 
L 181.163287 160.049472 
L 181.521812 160.275919 
L 182.238861 160.315111 
L 182.597386 160.519439 
L 182.955911 160.173401 
L 183.314435 160.020237 
L 183.67296 160.251466 
L 184.031485 160.192487 
L 184.748534 160.451216 
L 185.107059 160.271045 
L 185.465584 160.443943 
L 185.824109 160.326113 
L 186.182633 160.411519 
L 187.258208 160.293227 
L 187.616732 161.325149 
L 188.333782 161.450155 
L 188.692307 161.227114 
L 189.767881 161.438746 
L 190.126406 161.342334 
L 190.48493 161.455957 
L 190.843455 161.34253 
L 191.919029 161.496441 
L 192.994604 161.325812 
L 194.070178 161.428088 
L 194.428703 161.467892 
L 195.145752 161.330174 
L 196.221326 161.523389 
L 196.938376 161.460743 
L 197.296901 161.521563 
L 198.01395 161.390266 
L 198.731 161.344434 
L 201.957722 161.499339 
L 202.316247 161.32743 
L 202.674772 161.524815 
L 210.203792 161.567335 
L 210.562316 162.087699 
L 211.279366 162.182485 
L 211.637891 162.127231 
L 211.996415 162.207013 
L 212.713465 162.112989 
L 220.242485 162.24032 
L 220.601009 162.512204 
L 220.959534 162.55302 
L 221.318059 162.478576 
L 222.393633 162.5158 
L 228.488554 162.507904 
L 228.847079 162.668241 
L 231.715277 162.689401 
L 233.5079 162.664645 
L 235.300524 162.68921 
L 237.451673 162.698002 
L 239.961346 162.704311 
L 241.03692 162.788816 
L 244.622168 162.789629 
L 246.414791 162.733022 
L 247.131841 162.769605 
L 250.358564 162.782014 
L 253.226762 162.81031 
L 255.736435 162.828186 
L 260.397257 162.848142 
L 261.472831 162.86011 
L 263.265455 162.861855 
L 263.265455 162.861855 
" clip-path="url(#p45eab29673)" style="fill: none; stroke: #1d3557; stroke-width: 1.5; stroke-linecap: square"/>
   </g>
   <g id="line2d_44">
    <path d="M 61.774545 55.031818 
L 62.13307 64.457201 
L 62.491595 65.988485 
L 63.208644 79.092494 
L 63.567169 71.471607 
L 63.925694 72.442889 
L 64.284219 83.356095 
L 64.642743 72.959797 
L 65.001268 86.80012 
L 65.718318 82.621657 
L 66.076842 92.37579 
L 66.435367 89.505522 
L 66.793892 87.983556 
L 67.152417 93.275439 
L 67.510941 92.662515 
L 67.869466 82.110172 
L 68.227991 90.002713 
L 68.586516 82.469276 
L 68.94504 77.313156 
L 69.303565 90.311436 
L 70.020615 98.738488 
L 70.379139 90.685169 
L 70.737664 105.875039 
L 71.096189 85.961658 
L 71.454714 81.752451 
L 71.813238 98.742625 
L 72.171763 95.346179 
L 72.530288 95.850319 
L 72.888813 73.994367 
L 73.247337 103.496903 
L 73.605862 91.149376 
L 74.322912 104.48979 
L 74.681436 93.523771 
L 75.039961 107.722622 
L 75.398486 90.875728 
L 75.757011 86.195665 
L 76.115535 97.771043 
L 76.47406 97.839942 
L 76.832585 87.827415 
L 77.19111 101.358815 
L 77.549634 102.578049 
L 77.908159 99.716677 
L 78.266684 104.633884 
L 78.983733 91.527924 
L 79.342258 102.973237 
L 79.700783 106.698486 
L 80.059308 93.722681 
L 80.417832 91.621521 
L 80.776357 94.645714 
L 81.134882 99.014252 
L 81.493407 88.086279 
L 81.851931 107.57307 
L 82.210456 103.474488 
L 82.568981 104.711984 
L 82.927506 126.78444 
L 83.28603 127.020584 
L 83.644555 121.020952 
L 84.00308 125.574356 
L 84.361605 124.188494 
L 84.720129 117.550336 
L 85.078654 122.243876 
L 85.437179 118.150484 
L 85.795704 107.903725 
L 86.154228 119.208524 
L 86.512753 120.332263 
L 86.871278 117.43622 
L 87.229803 107.995888 
L 87.588327 120.298133 
L 87.946852 111.332238 
L 88.305377 121.281558 
L 88.663902 113.393675 
L 89.380951 121.390845 
L 89.739476 120.949423 
L 90.098001 123.822679 
L 90.456525 113.912527 
L 90.81505 120.494131 
L 91.173575 134.975936 
L 91.5321 134.246836 
L 91.890624 130.924246 
L 92.249149 135.2986 
L 92.607674 130.009632 
L 92.966199 130.348861 
L 93.324723 129.339106 
L 93.683248 130.758976 
L 94.041773 127.659042 
L 94.400298 131.009961 
L 94.758822 131.859184 
L 95.117347 130.740808 
L 95.475872 133.054627 
L 95.834397 130.187281 
L 96.192921 132.825885 
L 96.551446 126.100476 
L 96.909971 133.332549 
L 97.268496 129.079247 
L 97.62702 132.069062 
L 97.985545 128.453626 
L 98.34407 126.914869 
L 98.702595 129.760038 
L 99.061119 122.989526 
L 99.419644 131.889774 
L 99.778169 129.317562 
L 100.136694 139.99888 
L 100.495218 139.394673 
L 100.853743 139.23965 
L 101.212268 138.734585 
L 101.570793 139.017936 
L 101.929317 138.430283 
L 102.287842 139.412837 
L 102.646367 134.840553 
L 103.004892 138.535562 
L 103.363416 139.188756 
L 103.721941 138.326507 
L 104.438991 139.186175 
L 104.797515 135.424072 
L 105.15604 136.424436 
L 105.514565 138.115547 
L 105.87309 138.639278 
L 106.231614 137.39071 
L 106.590139 138.155954 
L 106.948664 135.791101 
L 107.307189 139.445548 
L 107.665713 138.767424 
L 108.024238 142.805696 
L 108.382763 142.527482 
L 108.741288 141.731452 
L 109.099812 142.789993 
L 109.458337 141.295957 
L 109.816862 141.448193 
L 110.175387 141.312501 
L 110.533911 141.513315 
L 110.892436 142.240406 
L 111.250961 142.145982 
L 111.609486 140.677575 
L 111.96801 142.641157 
L 112.326535 141.524872 
L 113.402109 142.204411 
L 113.760634 142.206621 
L 114.119159 142.850629 
L 114.477684 142.565131 
L 114.836208 141.698737 
L 115.194733 141.533658 
L 115.911783 143.03518 
L 116.270307 141.935354 
L 116.628832 141.465754 
L 116.987357 141.728585 
L 117.345882 142.9725 
L 117.704406 140.958814 
L 118.062931 141.642695 
L 118.421456 141.254032 
L 118.779981 142.677779 
L 119.138505 140.770975 
L 119.49703 143.190947 
L 119.855555 141.335177 
L 120.21408 143.345368 
L 120.572604 140.753976 
L 120.931129 143.031688 
L 121.289654 141.456053 
L 121.648179 143.348943 
L 122.006703 142.415571 
L 122.365228 141.172174 
L 122.723753 141.803008 
L 123.082278 143.358103 
L 123.440802 141.405226 
L 123.799327 142.565957 
L 124.157852 142.896816 
L 124.516377 141.944218 
L 124.874901 143.669038 
L 125.233426 143.099286 
L 125.950476 142.497666 
L 126.309 142.716314 
L 126.667525 142.03922 
L 127.02605 143.280375 
L 127.384575 141.800511 
L 127.743099 141.40161 
L 128.101624 141.542855 
L 128.460149 142.118928 
L 128.818674 143.837722 
L 129.177198 143.306043 
L 129.894248 142.942743 
L 130.252773 142.098263 
L 130.611297 143.488393 
L 130.969822 141.515529 
L 131.328347 142.430853 
L 131.686872 142.607291 
L 132.045396 141.608607 
L 132.403921 143.166258 
L 133.120971 143.851716 
L 133.479495 141.840094 
L 133.83802 143.042119 
L 134.196545 142.292947 
L 134.55507 143.939744 
L 134.913594 142.971668 
L 135.272119 142.331184 
L 135.630644 144.513749 
L 135.989169 143.260079 
L 136.347693 143.565313 
L 136.706218 143.017593 
L 137.064743 143.688412 
L 137.423268 143.431472 
L 137.781792 142.29297 
L 138.140317 142.453389 
L 138.498842 143.719785 
L 138.857367 142.679893 
L 139.215891 142.832354 
L 139.574416 143.172693 
L 139.932941 143.292455 
L 140.64999 144.525784 
L 141.008515 142.482371 
L 141.36704 143.126326 
L 142.084089 143.739638 
L 142.442614 143.153843 
L 142.801139 143.677888 
L 143.159664 142.623567 
L 143.518188 142.768383 
L 143.876713 144.055789 
L 144.593763 143.751226 
L 144.952287 142.853467 
L 145.669337 144.089102 
L 146.027862 142.716852 
L 146.386386 142.654694 
L 146.744911 144.378204 
L 147.103436 143.558329 
L 147.461961 143.084831 
L 147.820485 143.632381 
L 148.17901 143.134905 
L 148.537535 144.821726 
L 149.613109 145.627481 
L 150.330159 145.709906 
L 150.688683 144.79464 
L 151.047208 145.664803 
L 151.405733 145.207554 
L 151.764258 145.63201 
L 152.122782 145.824921 
L 152.481307 145.863794 
L 152.839832 145.201206 
L 153.198357 145.42968 
L 153.556881 145.441988 
L 153.915406 145.909605 
L 154.273931 144.8061 
L 154.632456 145.841919 
L 155.349505 144.801994 
L 155.70803 145.890775 
L 156.066555 143.802089 
L 156.425079 145.846138 
L 156.783604 145.041042 
L 157.142129 145.701385 
L 157.500654 145.611304 
L 158.217703 145.614381 
L 158.576228 146.002543 
L 158.934753 145.502584 
L 159.293277 145.57697 
L 159.651802 145.432506 
L 160.010327 145.061852 
L 160.368852 145.74109 
L 160.727376 146.06115 
L 161.085901 145.148987 
L 161.444426 145.566334 
L 161.802951 144.713349 
L 162.161475 146.243042 
L 162.52 145.320158 
L 162.878525 145.818671 
L 163.237049 144.084867 
L 163.595574 145.923393 
L 163.954099 146.603718 
L 164.312624 145.599019 
L 164.671148 145.666656 
L 165.029673 145.495032 
L 165.388198 145.471087 
L 165.746723 145.3078 
L 166.105247 145.331028 
L 166.463772 145.030334 
L 166.822297 145.764553 
L 167.180822 145.092733 
L 167.539346 144.963768 
L 167.897871 145.256143 
L 168.256396 146.269262 
L 168.614921 145.002092 
L 168.973445 145.965889 
L 169.33197 145.103238 
L 169.690495 146.076223 
L 170.04902 146.185223 
L 170.407544 145.690615 
L 170.766069 145.58948 
L 171.124594 146.583685 
L 171.483119 145.18351 
L 171.841643 147.004158 
L 172.200168 146.990681 
L 172.558693 146.222279 
L 172.917218 146.983422 
L 173.275742 147.1805 
L 173.634267 146.830804 
L 173.992792 146.962387 
L 174.351317 146.577101 
L 174.709841 146.485042 
L 175.068366 146.686821 
L 175.785416 146.65433 
L 176.14394 146.372248 
L 176.502465 146.449807 
L 176.86099 146.141616 
L 177.219515 146.968431 
L 177.578039 146.811529 
L 177.936564 146.88555 
L 178.295089 146.325287 
L 178.653614 147.074581 
L 179.012138 146.31466 
L 179.370663 146.957269 
L 179.729188 147.300239 
L 180.804762 146.363024 
L 181.521812 146.998367 
L 181.880336 146.197588 
L 182.238861 146.538339 
L 182.597386 146.5138 
L 182.955911 146.970152 
L 183.314435 147.065915 
L 183.67296 146.425766 
L 184.031485 146.923337 
L 184.39001 146.644901 
L 184.748534 147.051351 
L 185.107059 146.86725 
L 185.465584 147.132178 
L 185.824109 146.749614 
L 186.182633 147.006873 
L 186.541158 146.778538 
L 186.899683 147.01763 
L 187.258208 146.906676 
L 187.616732 147.118547 
L 187.975257 147.117094 
L 188.333782 147.236286 
L 188.692307 147.10825 
L 189.050831 147.338146 
L 189.767881 147.258427 
L 190.126406 147.400712 
L 190.48493 147.233835 
L 190.843455 147.383775 
L 191.20198 147.25031 
L 191.560505 147.332288 
L 191.919029 147.193939 
L 192.277554 147.366467 
L 192.636079 147.360164 
L 192.994604 147.218624 
L 193.353128 147.496655 
L 193.711653 147.342825 
L 194.070178 147.355016 
L 194.428703 146.893374 
L 194.787227 147.293259 
L 195.145752 147.520791 
L 195.504277 147.23832 
L 196.579851 147.481675 
L 196.938376 147.26509 
L 197.296901 147.195214 
L 197.655425 147.279684 
L 198.01395 147.051234 
L 198.372475 147.456238 
L 199.089524 147.019071 
L 199.448049 147.362992 
L 200.523623 147.266244 
L 200.882148 147.124396 
L 201.240673 147.508896 
L 201.599198 147.086622 
L 201.957722 147.319861 
L 202.316247 147.249575 
L 202.674772 147.578175 
L 203.033297 147.259184 
L 203.391821 147.412864 
L 203.750346 147.192928 
L 204.467396 147.27408 
L 205.184445 147.529035 
L 205.54297 147.278134 
L 205.901495 147.519292 
L 206.260019 147.321108 
L 207.335594 147.484288 
L 207.694118 147.156856 
L 208.052643 147.147045 
L 208.411168 147.300508 
L 208.769693 147.126706 
L 209.128217 147.170785 
L 209.486742 147.465094 
L 210.203792 146.907655 
L 210.562316 147.528018 
L 210.920841 147.637818 
L 211.279366 147.533093 
L 211.996415 147.619587 
L 212.35494 147.446249 
L 212.713465 147.746959 
L 213.07199 147.523412 
L 213.789039 147.627642 
L 214.147564 147.557781 
L 214.506089 147.298964 
L 214.864613 147.590158 
L 215.940188 147.696361 
L 217.015762 147.564131 
L 217.374287 147.564653 
L 217.732811 147.688637 
L 218.808386 147.525841 
L 219.16691 147.429948 
L 219.88396 147.670149 
L 220.242485 147.541026 
L 220.959534 147.773299 
L 221.676584 147.755185 
L 222.035108 147.754861 
L 222.393633 147.607425 
L 223.469207 147.70533 
L 223.827732 147.771545 
L 224.544782 147.730612 
L 228.488554 147.684866 
L 229.205603 147.785742 
L 229.564128 147.697929 
L 229.922653 147.788277 
L 230.639702 147.747847 
L 232.432326 147.801159 
L 233.149376 147.757336 
L 263.265455 147.800955 
L 263.265455 147.800955 
" clip-path="url(#p45eab29673)" style="fill: none; stroke: #e63946; stroke-width: 1.5; stroke-linecap: square"/>
   </g>
   <g id="patch_3">
    <path d="M 51.7 170.277656 
L 51.7 7.2 
" style="fill: none; stroke: #000000; stroke-width: 0.8; stroke-linejoin: miter; stroke-linecap: square"/>
   </g>
   <g id="patch_4">
    <path d="M 273.34 170.277656 
L 273.34 7.2 
" style="fill: none; stroke: #000000; stroke-width: 0.8; stroke-linejoin: miter; stroke-linecap: square"/>
   </g>
   <g id="patch_5">
    <path d="M 51.7 170.277656 
L 273.34 170.277656 
" style="fill: none; stroke: #000000; stroke-width: 0.8; stroke-linejoin: miter; stroke-linecap: square"/>
   </g>
   <g id="patch_6">
    <path d="M 51.7 7.2 
L 273.34 7.2 
" style="fill: none; stroke: #000000; stroke-width: 0.8; stroke-linejoin: miter; stroke-linecap: square"/>
   </g>
   <g id="legend_1">
    <g id="patch_7">
     <path d="M 162.466562 45.201562 
L 266.34 45.201562 
Q 268.34 45.201562 268.34 43.201562 
L 268.34 14.2 
Q 268.34 12.2 266.34 12.2 
L 162.466562 12.2 
Q 160.466562 12.2 160.466562 14.2 
L 160.466562 43.201562 
Q 160.466562 45.201562 162.466562 45.201562 
z
" style="fill: #ffffff; opacity: 0.8; stroke: #cccccc; stroke-linejoin: miter"/>
    </g>
    <g id="line2d_45">
     <path d="M 164.466562 20.298437 
L 174.466562 20.298437 
L 184.466562 20.298437 
" style="fill: none; stroke: #1d3557; stroke-width: 1.5; stroke-linecap: square"/>
    </g>
    <g id="text_13">
     <!-- Training loss -->
     <g transform="translate(192.466562 23.798437) scale(0.1 -0.1)">
      <defs>
       <path id="DejaVuSans-37" d="M -19 4666 
L 3928 4666 
L 3928 4134 
L 2272 4134 
L 2272 0 
L 1638 0 
L 1638 4134 
L -19 4134 
L -19 4666 
z
" transform="scale(0.015625)"/>
       <path id="DejaVuSans-55" d="M 2631 2963 
Q 2534 3019 2420 3045 
Q 2306 3072 2169 3072 
Q 1681 3072 1420 2755 
Q 1159 2438 1159 1844 
L 1159 0 
L 581 0 
L 581 3500 
L 1159 3500 
L 1159 2956 
Q 1341 3275 1631 3429 
Q 1922 3584 2338 3584 
Q 2397 3584 2469 3576 
Q 2541 3569 2628 3553 
L 2631 2963 
z
" transform="scale(0.015625)"/>
       <path id="DejaVuSans-44" d="M 2194 1759 
Q 1497 1759 1228 1600 
Q 959 1441 959 1056 
Q 959 750 1161 570 
Q 1363 391 1709 391 
Q 2188 391 2477 730 
Q 2766 1069 2766 1631 
L 2766 1759 
L 2194 1759 
z
M 3341 1997 
L 3341 0 
L 2766 0 
L 2766 531 
Q 2569 213 2275 61 
Q 1981 -91 1556 -91 
Q 1019 -91 701 211 
Q 384 513 384 1019 
Q 384 1609 779 1909 
Q 1175 2209 1959 2209 
L 2766 2209 
L 2766 2266 
Q 2766 2663 2505 2880 
Q 2244 3097 1772 3097 
Q 1472 3097 1187 3025 
Q 903 2953 641 2809 
L 641 3341 
Q 956 3463 1253 3523 
Q 1550 3584 1831 3584 
Q 2591 3584 2966 3190 
Q 3341 2797 3341 1997 
z
" transform="scale(0.015625)"/>
       <path id="DejaVuSans-4c" d="M 603 3500 
L 1178 3500 
L 1178 0 
L 603 0 
L 603 3500 
z
M 603 4863 
L 1178 4863 
L 1178 4134 
L 603 4134 
L 603 4863 
z
" transform="scale(0.015625)"/>
       <path id="DejaVuSans-51" d="M 3513 2113 
L 3513 0 
L 2938 0 
L 2938 2094 
Q 2938 2591 2744 2837 
Q 2550 3084 2163 3084 
Q 1697 3084 1428 2787 
Q 1159 2491 1159 1978 
L 1159 0 
L 581 0 
L 581 3500 
L 1159 3500 
L 1159 2956 
Q 1366 3272 1645 3428 
Q 1925 3584 2291 3584 
Q 2894 3584 3203 3211 
Q 3513 2838 3513 2113 
z
" transform="scale(0.015625)"/>
       <path id="DejaVuSans-4a" d="M 2906 1791 
Q 2906 2416 2648 2759 
Q 2391 3103 1925 3103 
Q 1463 3103 1205 2759 
Q 947 2416 947 1791 
Q 947 1169 1205 825 
Q 1463 481 1925 481 
Q 2391 481 2648 825 
Q 2906 1169 2906 1791 
z
M 3481 434 
Q 3481 -459 3084 -895 
Q 2688 -1331 1869 -1331 
Q 1566 -1331 1297 -1286 
Q 1028 -1241 775 -1147 
L 775 -588 
Q 1028 -725 1275 -790 
Q 1522 -856 1778 -856 
Q 2344 -856 2625 -561 
Q 2906 -266 2906 331 
L 2906 616 
Q 2728 306 2450 153 
Q 2172 0 1784 0 
Q 1141 0 747 490 
Q 353 981 353 1791 
Q 353 2603 747 3093 
Q 1141 3584 1784 3584 
Q 2172 3584 2450 3431 
Q 2728 3278 2906 2969 
L 2906 3500 
L 3481 3500 
L 3481 434 
z
" transform="scale(0.015625)"/>
       <path id="DejaVuSans-3" transform="scale(0.015625)"/>
       <path id="DejaVuSans-4f" d="M 603 4863 
L 1178 4863 
L 1178 0 
L 603 0 
L 603 4863 
z
" transform="scale(0.015625)"/>
      </defs>
      <use xlink:href="#DejaVuSans-37"/>
      <use xlink:href="#DejaVuSans-55" transform="translate(46.375 0)"/>
      <use xlink:href="#DejaVuSans-44" transform="translate(87.484375 0)"/>
      <use xlink:href="#DejaVuSans-4c" transform="translate(148.765625 0)"/>
      <use xlink:href="#DejaVuSans-51" transform="translate(176.546875 0)"/>
      <use xlink:href="#DejaVuSans-4c" transform="translate(239.921875 0)"/>
      <use xlink:href="#DejaVuSans-51" transform="translate(267.703125 0)"/>
      <use xlink:href="#DejaVuSans-4a" transform="translate(331.078125 0)"/>
      <use xlink:href="#DejaVuSans-3" transform="translate(394.5625 0)"/>
      <use xlink:href="#DejaVuSans-4f" transform="translate(426.34375 0)"/>
      <use xlink:href="#DejaVuSans-52" transform="translate(454.125 0)"/>
      <use xlink:href="#DejaVuSans-56" transform="translate(515.3125 0)"/>
      <use xlink:href="#DejaVuSans-56" transform="translate(567.40625 0)"/>
     </g>
    </g>
    <g id="line2d_46">
     <path d="M 164.466562 35.299219 
L 174.466562 35.299219 
L 184.466562 35.299219 
" style="fill: none; stroke: #e63946; stroke-width: 1.5; stroke-linecap: square"/>
    </g>
    <g id="text_14">
     <!-- Validation loss -->
     <g transform="translate(192.466562 38.799219) scale(0.1 -0.1)">
      <defs>
       <path id="DejaVuSans-39" d="M 1831 0 
L 50 4666 
L 709 4666 
L 2188 738 
L 3669 4666 
L 4325 4666 
L 2547 0 
L 1831 0 
z
" transform="scale(0.015625)"/>
       <path id="DejaVuSans-47" d="M 2906 2969 
L 2906 4863 
L 3481 4863 
L 3481 0 
L 2906 0 
L 2906 525 
Q 2725 213 2448 61 
Q 2172 -91 1784 -91 
Q 1150 -91 751 415 
Q 353 922 353 1747 
Q 353 2572 751 3078 
Q 1150 3584 1784 3584 
Q 2172 3584 2448 3432 
Q 2725 3281 2906 2969 
z
M 947 1747 
Q 947 1113 1208 752 
Q 1469 391 1925 391 
Q 2381 391 2643 752 
Q 2906 1113 2906 1747 
Q 2906 2381 2643 2742 
Q 2381 3103 1925 3103 
Q 1469 3103 1208 2742 
Q 947 2381 947 1747 
z
" transform="scale(0.015625)"/>
       <path id="DejaVuSans-57" d="M 1172 4494 
L 1172 3500 
L 2356 3500 
L 2356 3053 
L 1172 3053 
L 1172 1153 
Q 1172 725 1289 603 
Q 1406 481 1766 481 
L 2356 481 
L 2356 0 
L 1766 0 
Q 1100 0 847 248 
Q 594 497 594 1153 
L 594 3053 
L 172 3053 
L 172 3500 
L 594 3500 
L 594 4494 
L 1172 4494 
z
" transform="scale(0.015625)"/>
      </defs>
      <use xlink:href="#DejaVuSans-39"/>
      <use xlink:href="#DejaVuSans-44" transform="translate(60.640625 0)"/>
      <use xlink:href="#DejaVuSans-4f" transform="translate(121.921875 0)"/>
      <use xlink:href="#DejaVuSans-4c" transform="translate(149.703125 0)"/>
      <use xlink:href="#DejaVuSans-47" transform="translate(177.484375 0)"/>
      <use xlink:href="#DejaVuSans-44" transform="translate(240.96875 0)"/>
      <use xlink:href="#DejaVuSans-57" transform="translate(302.25 0)"/>
      <use xlink:href="#DejaVuSans-4c" transform="translate(341.453125 0)"/>
      <use xlink:href="#DejaVuSans-52" transform="translate(369.234375 0)"/>
      <use xlink:href="#DejaVuSans-51" transform="translate(430.421875 0)"/>
      <use xlink:href="#DejaVuSans-3" transform="translate(493.796875 0)"/>
      <use xlink:href="#DejaVuSans-4f" transform="translate(525.578125 0)"/>
      <use xlink:href="#DejaVuSans-52" transform="translate(553.359375 0)"/>
      <use xlink:href="#DejaVuSans-56" transform="translate(614.546875 0)"/>
      <use xlink:href="#DejaVuSans-56" transform="translate(666.640625 0)"/>
     </g>
    </g>
   </g>
  </g>
 </g>
 <defs>
  <clipPath id="p45eab29673">
   <rect x="51.7" y="7.2" width="221.64" height="163.077656"/>
  </clipPath>
 </defs>
</svg>
